<svg id="visual" viewBox="0 0 960 540" width="960" height="540" xmlns="http://www.w3.org/2000/svg" xmlns:xlink="http://www.w3.org/1999/xlink" version="1.1"><rect x="0" y="0" width="960" height="540" fill="#140021"></rect><path d="M595 540L598 540L598 508L521 508L521 476L536 476L536 445L529 445L529 413L508 413L508 381L567 381L567 349L593 349L593 318L555 318L555 286L585 286L585 254L524 254L524 222L541 222L541 191L602 191L602 159L514 159L514 127L599 127L599 95L545 95L545 64L597 64L597 32L558 32L558 0L960 0L960 32L960 32L960 64L960 64L960 95L960 95L960 127L960 127L960 159L960 159L960 191L960 191L960 222L960 222L960 254L960 254L960 286L960 286L960 318L960 318L960 349L960 349L960 381L960 381L960 413L960 413L960 445L960 445L960 476L960 476L960 508L960 508L960 540L960 540Z" fill="#eaff00"></path><path d="M634 540L634 540L634 508L585 508L585 476L563 476L563 445L564 445L564 413L605 413L605 381L565 381L565 349L587 349L587 318L584 318L584 286L618 286L618 254L587 254L587 222L567 222L567 191L561 191L561 159L612 159L612 127L555 127L555 95L587 95L587 64L633 64L633 32L637 32L637 0L960 0L960 32L960 32L960 64L960 64L960 95L960 95L960 127L960 127L960 159L960 159L960 191L960 191L960 222L960 222L960 254L960 254L960 286L960 286L960 318L960 318L960 349L960 349L960 381L960 381L960 413L960 413L960 445L960 445L960 476L960 476L960 508L960 508L960 540L960 540Z" fill="#d9eb0d"></path><path d="M617 540L654 540L654 508L665 508L665 476L618 476L618 445L652 445L652 413L658 413L658 381L617 381L617 349L609 349L609 318L622 318L622 286L604 286L604 254L673 254L673 222L671 222L671 191L642 191L642 159L670 159L670 127L642 127L642 95L636 95L636 64L603 64L603 32L634 32L634 0L960 0L960 32L960 32L960 64L960 64L960 95L960 95L960 127L960 127L960 159L960 159L960 191L960 191L960 222L960 222L960 254L960 254L960 286L960 286L960 318L960 318L960 349L960 349L960 381L960 381L960 413L960 413L960 445L960 445L960 476L960 476L960 508L960 508L960 540L960 540Z" fill="#c8d715"></path><path d="M659 540L655 540L655 508L695 508L695 476L677 476L677 445L675 445L675 413L677 413L677 381L655 381L655 349L638 349L638 318L651 318L651 286L656 286L656 254L635 254L635 222L684 222L684 191L661 191L661 159L704 159L704 127L711 127L711 95L675 95L675 64L673 64L673 32L650 32L650 0L960 0L960 32L960 32L960 64L960 64L960 95L960 95L960 127L960 127L960 159L960 159L960 191L960 191L960 222L960 222L960 254L960 254L960 286L960 286L960 318L960 318L960 349L960 349L960 381L960 381L960 413L960 413L960 445L960 445L960 476L960 476L960 508L960 508L960 540L960 540Z" fill="#b7c319"></path><path d="M694 540L733 540L733 508L738 508L738 476L729 476L729 445L686 445L686 413L729 413L729 381L706 381L706 349L731 349L731 318L743 318L743 286L696 286L696 254L681 254L681 222L677 222L677 191L705 191L705 159L726 159L726 127L735 127L735 95L705 95L705 64L699 64L699 32L685 32L685 0L960 0L960 32L960 32L960 64L960 64L960 95L960 95L960 127L960 127L960 159L960 159L960 191L960 191L960 222L960 222L960 254L960 254L960 286L960 286L960 318L960 318L960 349L960 349L960 381L960 381L960 413L960 413L960 445L960 445L960 476L960 476L960 508L960 508L960 540L960 540Z" fill="#a6b01c"></path><path d="M780 540L753 540L753 508L724 508L724 476L750 476L750 445L763 445L763 413L755 413L755 381L780 381L780 349L743 349L743 318L736 318L736 286L781 286L781 254L777 254L777 222L767 222L767 191L783 191L783 159L761 159L761 127L723 127L723 95L783 95L783 64L725 64L725 32L781 32L781 0L960 0L960 32L960 32L960 64L960 64L960 95L960 95L960 127L960 127L960 159L960 159L960 191L960 191L960 222L960 222L960 254L960 254L960 286L960 286L960 318L960 318L960 349L960 349L960 381L960 381L960 413L960 413L960 445L960 445L960 476L960 476L960 508L960 508L960 540L960 540Z" fill="#969e1e"></path><path d="M796 540L807 540L807 508L771 508L771 476L777 476L777 445L798 445L798 413L779 413L779 381L803 381L803 349L785 349L785 318L764 318L764 286L785 286L785 254L797 254L797 222L778 222L778 191L779 191L779 159L784 159L784 127L810 127L810 95L789 95L789 64L789 64L789 32L767 32L767 0L960 0L960 32L960 32L960 64L960 64L960 95L960 95L960 127L960 127L960 159L960 159L960 191L960 191L960 222L960 222L960 254L960 254L960 286L960 286L960 318L960 318L960 349L960 349L960 381L960 381L960 413L960 413L960 445L960 445L960 476L960 476L960 508L960 508L960 540L960 540Z" fill="#858c1e"></path><path d="M822 540L822 540L822 508L822 508L822 476L842 476L842 445L849 445L849 413L830 413L830 381L828 381L828 349L812 349L812 318L852 318L852 286L824 286L824 254L823 254L823 222L826 222L826 191L839 191L839 159L845 159L845 127L836 127L836 95L843 95L843 64L816 64L816 32L821 32L821 0L960 0L960 32L960 32L960 64L960 64L960 95L960 95L960 127L960 127L960 159L960 159L960 191L960 191L960 222L960 222L960 254L960 254L960 286L960 286L960 318L960 318L960 349L960 349L960 381L960 381L960 413L960 413L960 445L960 445L960 476L960 476L960 508L960 508L960 540L960 540Z" fill="#757a1e"></path><path d="M868 540L884 540L884 508L862 508L862 476L887 476L887 445L878 445L878 413L861 413L861 381L866 381L866 349L863 349L863 318L862 318L862 286L861 286L861 254L857 254L857 222L867 222L867 191L880 191L880 159L851 159L851 127L862 127L862 95L870 95L870 64L870 64L870 32L875 32L875 0L960 0L960 32L960 32L960 64L960 64L960 95L960 95L960 127L960 127L960 159L960 159L960 191L960 191L960 222L960 222L960 254L960 254L960 286L960 286L960 318L960 318L960 349L960 349L960 381L960 381L960 413L960 413L960 445L960 445L960 476L960 476L960 508L960 508L960 540L960 540Z" fill="#65691d"></path><path d="M922 540L897 540L897 508L906 508L906 476L903 476L903 445L894 445L894 413L895 413L895 381L895 381L895 349L905 349L905 318L897 318L897 286L904 286L904 254L918 254L918 222L924 222L924 191L913 191L913 159L916 159L916 127L914 127L914 95L921 95L921 64L909 64L909 32L919 32L919 0L960 0L960 32L960 32L960 64L960 64L960 95L960 95L960 127L960 127L960 159L960 159L960 191L960 191L960 222L960 222L960 254L960 254L960 286L960 286L960 318L960 318L960 349L960 349L960 381L960 381L960 413L960 413L960 445L960 445L960 476L960 476L960 508L960 508L960 540L960 540Z" fill="#56581c"></path></svg>